<?xml version="1.0" encoding="utf-8"?>
<!-- Generator: Adobe Illustrator 26.0.0, SVG Export Plug-In . SVG Version: 6.00 Build 0)  -->
<svg version="1.1" id="图层_1" xmlns="http://www.w3.org/2000/svg" xmlns:xlink="http://www.w3.org/1999/xlink" x="0px" y="0px"
	 viewBox="0 0 1024 1024" style="enable-background:new 0 0 1024 1024;" xml:space="preserve">
<style type="text/css">
	.st0{fill:none;}
	.st1{font-family:'STZhongsong';}
	.st2{font-size:72px;}
	.st3{fill:#662D91;}
</style>
<rect x="149.65" y="173.19" class="st0" width="723.37" height="229.82"/>
<text transform="matrix(1.1663 0 0 1 305.6065 230.791)"><tspan x="0" y="0" class="st1 st2">Mua’Dib     </tspan><tspan x="71.28" y="86.4" class="st1 st2">Guide</tspan></text>
<path class="st3" d="M189.63,546.72"/>
<path class="st3" d="M225.46,462.54c1.29,42.25,52.95,69.32,59.71,72.75c21.72,4.19,57.16,9.2,100.29,6.19
	c91.53-6.38,146.44-43.88,254.66-91.47c39.3-17.28,99.2-41.86,175.89-66.21c0,52.5,0,104.99,0,157.49
	c-29.65-17.04-275.7-157.15-421.23-174.89c-42.86-5.22-78.87-0.06-109.62,17.4C270.75,391.97,224.12,418.57,225.46,462.54z"/>
<path class="st3" d="M746.94,639.96"/>
<path class="st3" d="M213.7,612.42c34.69,60.25,76.58,112.42,118.49,107.99c65.53-6.92,87.12-147.52,130.49-143.99
	c51.7,4.21,59.09,207.04,112.17,211.49c42.56,3.56,61.07-124.9,135.32-139.49c48.38-9.51,98.64,33.6,136.49,76.5"/>
</svg>
